<?xml version="1.0" encoding="utf-8"?>
<!-- Generator: Adobe Illustrator 16.0.0, SVG Export Plug-In . SVG Version: 6.00 Build 0)  -->
<!DOCTYPE svg PUBLIC "-//W3C//DTD SVG 1.1//EN" "http://www.w3.org/Graphics/SVG/1.1/DTD/svg11.dtd">
<svg version="1.1" id="Layer_1" xmlns="http://www.w3.org/2000/svg" xmlns:xlink="http://www.w3.org/1999/xlink" x="0px" y="0px"
	 width="192px" height="192px" viewBox="0 0 192 192" enable-background="new 0 0 192 192" xml:space="preserve">
<path fill="#DFD7EB" d="M1.657,96.899c0.767-25.642,8.974-47.62,27.908-64.755C40.164,22.555,52.618,16.14,66.688,13.05
	c23.03-5.056,45.247-3.066,66.263,7.995c6.995,3.684,13.914,7.716,16.972,15.872c3.239,8.639,1.23,18.432-5.284,24.353
	c-7.188,6.536-17.112,7.904-25.635,3.379c-5.071-2.686-9.78-6.203-15.072-8.29c-15.3-6.049-29.984-4.364-42.186,6.934
	c-7.768,7.195-12.176,16.847-13.061,27.722c-0.818,10.057,0.543,19.8,5.905,28.455c3.891,6.279,8.458,12.203,15.661,15.265
	c6.891,2.93,13.836,4.748,21.551,4.102c10.278-0.856,18.841-5.014,26.738-11.279c7.607-6.037,19.235-5.612,26.729,0.51
	c6.815,5.568,9.667,18.528,4.747,25.49c-2.889,4.089-6.187,8.197-10.142,11.176c-12.63,9.522-27.012,14.555-42.84,16.152
	c-15.674,1.584-30.726-0.361-44.967-6.719c-7.15-3.194-14.154-7.351-20.166-12.347C11.572,144.914,2.72,122.403,1.657,96.899"/>
<path fill="#ADDEE0" d="M168.202,117.026c-8.614-0.581-15.839-4.506-22.61-9.481c-2.672-1.957-5.298-3.978-7.849-6.089
	c-3.842-3.186-4.596-8.834-0.984-12.123c8.326-7.601,17.233-14.436,28.833-16.358c14.731-2.441,27.372,11.546,24.525,26.187
	C188.202,108.993,177.609,117.607,168.202,117.026"/>
</svg>
