<?xml version="1.0" encoding="utf-8"?>
<!-- Generator: Adobe Illustrator 16.0.0, SVG Export Plug-In . SVG Version: 6.00 Build 0)  -->
<!DOCTYPE svg PUBLIC "-//W3C//DTD SVG 1.1//EN" "http://www.w3.org/Graphics/SVG/1.1/DTD/svg11.dtd">
<svg version="1.1" id="Layer_1" xmlns="http://www.w3.org/2000/svg" xmlns:xlink="http://www.w3.org/1999/xlink" x="0px" y="0px"
	 width="120px" height="120px" viewBox="0 0 120 120" enable-background="new 0 0 120 120" xml:space="preserve">
<path fill="#DFD7EB" d="M1.603,60.61c0.473-15.854,5.55-29.447,17.257-40.045c6.557-5.93,14.256-9.898,22.96-11.808
	c14.24-3.127,27.981-1.896,40.978,4.944c4.326,2.277,8.604,4.772,10.495,9.813c2.004,5.345,0.76,11.4-3.269,15.064
	c-4.444,4.04-10.581,4.887-15.854,2.09c-3.135-1.661-6.049-3.838-9.319-5.128c-9.463-3.742-18.542-2.697-26.088,4.287
	c-4.805,4.45-7.53,10.42-8.079,17.144c-0.505,6.22,0.337,12.243,3.653,17.596c2.407,3.884,5.23,7.548,9.687,9.44
	c4.26,1.812,8.553,2.937,13.326,2.539c6.356-0.532,11.652-3.104,16.536-6.978c4.703-3.731,11.894-3.471,16.528,0.317
	c4.216,3.442,5.979,11.457,2.937,15.763c-1.786,2.529-3.826,5.068-6.273,6.912c-7.81,5.889-16.704,9-26.493,9.987
	c-9.692,0.98-18.999-0.223-27.807-4.154c-4.421-1.976-8.753-4.547-12.47-7.635C7.732,90.306,2.26,76.383,1.603,60.61"/>
<path fill="#ADDEE0" d="M104.595,73.059c-5.326-0.358-9.795-2.786-13.98-5.862c-1.652-1.213-3.277-2.462-4.855-3.768
	c-2.373-1.969-2.842-5.463-0.609-7.497c5.15-4.699,10.66-8.926,17.832-10.116c9.11-1.508,16.928,7.141,15.167,16.194
	C116.964,68.09,110.413,73.418,104.595,73.059"/>
</svg>
