<?xml version="1.0" encoding="utf-8"?>
<!-- Generator: Adobe Illustrator 16.0.0, SVG Export Plug-In . SVG Version: 6.00 Build 0)  -->
<!DOCTYPE svg PUBLIC "-//W3C//DTD SVG 1.1//EN" "http://www.w3.org/Graphics/SVG/1.1/DTD/svg11.dtd">
<svg version="1.1" id="Layer_1" xmlns="http://www.w3.org/2000/svg" xmlns:xlink="http://www.w3.org/1999/xlink" x="0px" y="0px"
	 width="167px" height="167px" viewBox="0 0 167 167" enable-background="new 0 0 167 167" xml:space="preserve">
<path fill="#DFD7EB" d="M1.381,84.36c0.666-22.299,7.804-41.412,24.268-56.312c9.218-8.34,20.047-13.919,32.284-16.606
	c20.027-4.397,39.349-2.667,57.624,6.953c6.085,3.202,12.1,6.71,14.759,13.8c2.816,7.516,1.068,16.03-4.598,21.18
	c-6.249,5.686-14.879,6.874-22.292,2.939c-4.408-2.335-8.504-5.395-13.105-7.21c-13.307-5.261-26.073-3.793-36.685,6.029
	c-6.757,6.258-10.59,14.651-11.358,24.107c-0.712,8.746,0.472,17.218,5.136,24.745c3.384,5.461,7.354,10.613,13.62,13.274
	c5.991,2.547,12.029,4.129,18.739,3.567c8.938-0.746,16.385-4.36,23.252-9.809c6.615-5.249,16.727-4.881,23.244,0.444
	c5.927,4.842,8.406,16.112,4.129,22.166c-2.514,3.556-5.381,7.128-8.819,9.719c-10.984,8.281-23.49,12.656-37.256,14.046
	c-13.631,1.378-26.72-0.313-39.104-5.844c-6.219-2.778-12.31-6.392-17.536-10.734C10.001,126.115,2.305,106.538,1.381,84.36"/>
<path fill="#ADDEE0" d="M146.209,101.862c-7.49-0.504-13.773-3.917-19.659-8.245c-2.323-1.702-4.607-3.46-6.826-5.295
	c-3.341-2.77-3.997-7.683-0.859-10.543c7.244-6.609,14.989-12.554,25.076-14.226c12.812-2.122,23.805,10.041,21.328,22.772
	C163.604,94.878,154.391,102.369,146.209,101.862"/>
</svg>
