<?xml version="1.0" encoding="utf-8"?>
<!-- Generator: Adobe Illustrator 16.0.0, SVG Export Plug-In . SVG Version: 6.00 Build 0)  -->
<!DOCTYPE svg PUBLIC "-//W3C//DTD SVG 1.1//EN" "http://www.w3.org/Graphics/SVG/1.1/DTD/svg11.dtd">
<svg version="1.1" id="Layer_1" xmlns="http://www.w3.org/2000/svg" xmlns:xlink="http://www.w3.org/1999/xlink" x="0px" y="0px"
	 width="72px" height="72px" viewBox="0 0 72 72" enable-background="new 0 0 72 72" xml:space="preserve">
<path fill="#DFD7EB" d="M0.925,36.236c0.286-9.578,3.353-17.788,10.425-24.188c3.959-3.582,8.61-5.979,13.867-7.133
	c8.603-1.889,16.902-1.146,24.752,2.986c2.614,1.375,5.197,2.882,6.34,5.927c1.21,3.229,0.459,6.886-1.975,9.098
	c-2.685,2.443-6.392,2.953-9.576,1.263c-1.894-1.003-3.652-2.317-5.629-3.097c-5.716-2.26-11.2-1.629-15.758,2.59
	c-2.902,2.688-4.549,6.293-4.879,10.355c-0.306,3.757,0.202,7.396,2.206,10.63c1.453,2.346,3.158,4.559,5.851,5.701
	c2.573,1.095,5.167,1.773,8.049,1.533c3.84-0.321,7.038-1.873,9.988-4.214c2.842-2.255,7.185-2.097,9.984,0.191
	c2.546,2.079,3.611,6.921,1.773,9.521c-1.079,1.527-2.312,3.062-3.788,4.175c-4.719,3.558-10.09,5.437-16.003,6.033
	c-5.855,0.592-11.478-0.134-16.797-2.51c-2.672-1.193-5.288-2.745-7.533-4.61C4.628,54.172,1.322,45.763,0.925,36.236"/>
<path fill="#ADDEE0" d="M63.136,43.755c-3.218-0.217-5.917-1.683-8.444-3.542c-0.998-0.731-1.979-1.486-2.933-2.274
	c-1.435-1.189-1.717-3.3-0.369-4.528c3.112-2.84,6.438-5.393,10.771-6.11c5.503-0.912,10.226,4.312,9.161,9.781
	C70.607,40.755,66.65,43.973,63.136,43.755"/>
</svg>
