<?xml version="1.0" encoding="utf-8"?>
<!-- Generator: Adobe Illustrator 16.0.0, SVG Export Plug-In . SVG Version: 6.00 Build 0)  -->
<!DOCTYPE svg PUBLIC "-//W3C//DTD SVG 1.1//EN" "http://www.w3.org/Graphics/SVG/1.1/DTD/svg11.dtd">
<svg version="1.1" id="Layer_1" xmlns="http://www.w3.org/2000/svg" xmlns:xlink="http://www.w3.org/1999/xlink" x="0px" y="0px"
	 width="1024px" height="1024px" viewBox="0 0 1024 1024" enable-background="new 0 0 1024 1024" xml:space="preserve">
<path fill="#DFD7EB" d="M248.73,420.621c2.117-70.956,24.83-131.784,77.225-179.198c29.339-26.545,63.799-44.295,102.738-52.849
	c63.738-13.991,125.221-8.483,183.38,22.123c19.356,10.193,38.503,21.359,46.964,43.922c8.967,23.91,3.406,51.012-14.62,67.4
	c-19.89,18.085-47.358,21.873-70.945,9.353c-14.028-7.438-27.067-17.167-41.708-22.946c-42.344-16.739-82.978-12.073-116.742,19.188
	c-21.499,19.915-33.699,46.628-36.148,76.715c-2.266,27.834,1.504,54.801,16.342,78.751c10.767,17.38,23.408,33.77,43.346,42.244
	c19.064,8.105,38.281,13.139,59.629,11.351c28.449-2.371,52.148-13.873,74.002-31.216c21.055-16.708,53.234-15.526,73.97,1.415
	c18.858,15.408,26.752,51.272,13.139,70.537c-7.997,11.324-17.118,22.686-28.065,30.931
	c-34.953,26.354-74.751,40.273-118.561,44.699c-43.377,4.382-85.027-0.996-124.438-18.598c-19.79-8.835-39.174-20.34-55.811-34.165
	C276.165,553.501,251.664,491.205,248.73,420.621"/>
<path fill="#ADDEE0" d="M709.623,476.324c-23.836-1.606-43.836-12.47-62.568-26.239c-7.393-5.415-14.662-11.011-21.721-16.858
	c-10.629-8.814-12.718-24.438-2.729-33.541c23.041-21.037,47.699-39.955,79.797-45.27c40.77-6.758,75.751,31.95,67.865,72.464
	C764.971,454.091,735.653,477.93,709.623,476.324"/>
<g>
	<path fill="#7D8AC5" d="M5.189,771.845v-0.278c0-28.021,20.978-50.975,50.831-50.975c15.209,0,25.206,4.508,33.798,11.122
		c1.832,1.412,3.373,3.806,3.373,6.9c0,4.792-3.803,8.45-8.585,8.45c-2.397,0-4.085-0.842-5.214-1.688
		c-6.755-5.495-14.076-8.868-23.516-8.868c-18.729,0-32.525,15.487-32.525,34.778v0.28c0,19.291,13.664,34.916,32.525,34.916
		c10.422,0,17.461-3.375,24.645-9.428c1.269-1.128,3.099-1.974,5.209-1.974c4.364,0,8.17,3.662,8.17,8.026
		c0,2.677-1.273,4.783-2.814,6.194c-9.296,8.167-19.856,13.237-35.77,13.237C26.588,822.539,5.189,800.151,5.189,771.845z"/>
	<path fill="#7D8AC5" d="M112.504,725.802c0-4.646,3.654-8.448,8.442-8.448c4.79,0,8.593,3.802,8.593,8.448v87.303
		c0,4.79-3.803,8.452-8.593,8.452c-4.651,0-8.442-3.662-8.442-8.452V725.802z"/>
	<path fill="#7D8AC5" d="M185.865,822.539c-21.545,0-38.158-15.629-38.158-38.58v-0.282c0-21.26,15.068-38.723,36.33-38.723
		c23.659,0,35.337,19.432,35.337,36.608c0,4.79-3.655,8.168-8.02,8.168H164.74c1.832,12.109,10.425,18.873,21.407,18.873
		c7.185,0,12.812-2.539,17.603-6.479c1.267-0.991,2.396-1.552,4.364-1.552c3.799,0,6.755,2.96,6.755,6.898
		c0,2.114-0.982,3.948-2.25,5.211C205.855,818.74,197.41,822.539,185.865,822.539z M202.763,778.466
		c-1.121-10.979-7.601-19.574-18.869-19.574c-10.413,0-17.745,8.03-19.288,19.574H202.763z"/>
	<path fill="#7D8AC5" d="M231.922,799.445v-0.283c0-16.051,12.537-23.938,30.693-23.938c8.31,0,14.224,1.268,19.996,3.098v-1.83
		c0-10.561-6.475-16.192-18.445-16.192c-6.478,0-11.828,1.13-16.471,2.96c-0.986,0.28-1.839,0.42-2.68,0.42
		c-3.939,0-7.181-3.093-7.181-7.039c0-3.098,2.112-5.769,4.646-6.76c7.047-2.675,14.225-4.364,23.938-4.364
		c11.125,0,19.432,2.956,24.642,8.305c5.493,5.354,8.024,13.24,8.024,22.957v36.609c0,4.644-3.663,8.169-8.308,8.169
		c-4.927,0-8.309-3.382-8.309-7.188v-2.816c-5.065,6.056-12.812,10.846-24.216,10.846
		C244.314,822.398,231.922,814.369,231.922,799.445z M282.892,794.096v-5.07c-4.364-1.687-10.14-2.955-16.896-2.955
		c-10.98,0-17.457,4.646-17.457,12.393v0.28c0,7.181,6.333,11.269,14.501,11.269C274.307,810.012,282.892,803.533,282.892,794.096z"
		/>
	<path fill="#7D8AC5" d="M319.518,754.245c0-4.781,3.658-8.589,8.445-8.589c4.788,0,8.592,3.808,8.592,8.589v3.662
		c4.781-6.902,11.688-12.953,23.233-12.953c16.752,0,26.466,11.265,26.466,28.445v39.705c0,4.79-3.656,8.452-8.444,8.452
		c-4.784,0-8.591-3.662-8.591-8.452V778.61c0-11.549-5.769-18.167-15.907-18.167c-9.858,0-16.757,6.898-16.757,18.445v34.216
		c0,4.79-3.804,8.452-8.592,8.452c-4.646,0-8.445-3.662-8.445-8.452V754.245z"/>
	<path fill="#7D8AC5" d="M406.542,726.508c0-5.07,4.228-8.312,9.72-8.312c5.489,0,9.721,3.242,9.721,8.312v0.846
		c0,5.066-4.231,8.444-9.721,8.444c-5.492,0-9.72-3.378-9.72-8.444V726.508z M407.816,754.245c0-4.781,3.664-8.589,8.445-8.589
		c4.789,0,8.596,3.808,8.596,8.589v58.859c0,4.79-3.807,8.452-8.596,8.452c-4.648,0-8.445-3.662-8.445-8.452V754.245z"/>
	<path fill="#7D8AC5" d="M447.1,754.245c0-4.781,3.674-8.589,8.452-8.589c4.794,0,8.596,3.808,8.596,8.589v3.662
		c4.782-6.902,11.678-12.953,23.229-12.953c16.758,0,26.477,11.265,26.477,28.445v39.705c0,4.79-3.663,8.452-8.451,8.452
		c-4.787,0-8.589-3.662-8.589-8.452V778.61c0-11.549-5.776-18.167-15.916-18.167c-9.85,0-16.75,6.898-16.75,18.445v34.216
		c0,4.79-3.802,8.452-8.596,8.452c-4.645,0-8.452-3.662-8.452-8.452V754.245z"/>
	<path fill="#7D8AC5" d="M538.786,837.04c-2.96-1.119-4.79-3.519-4.79-6.755c0-3.806,3.242-7.04,7.181-7.04
		c1.269,0,2.257,0.28,3.102,0.702c6.755,3.799,14.22,5.916,22.804,5.916c15.215,0,23.523-7.887,23.523-22.815v-5.769
		c-6.202,8.022-13.941,13.655-26.197,13.655c-17.459,0-33.794-12.953-33.794-34.78v-0.28c0-21.967,16.48-34.92,33.794-34.92
		c12.535,0,20.277,5.772,26.053,12.673v-3.519c0-4.645,3.803-8.452,8.451-8.452c4.783,0,8.588,3.808,8.588,8.589v51.396
		c0,12.534-3.241,21.828-9.438,28.022c-6.757,6.759-17.174,9.999-30.558,9.999C557.086,843.662,547.795,841.411,538.786,837.04z
		 M590.742,780.015v-0.284c0-12.106-9.997-20.412-21.829-20.412c-11.827,0-21.118,8.169-21.118,20.412v0.284
		c0,12.11,9.437,20.417,21.118,20.417C580.745,800.432,590.742,792.125,590.742,780.015z"/>
	<path fill="#7D8AC5" d="M668.768,771.845v-0.278c0-28.021,20.986-50.975,50.831-50.975c15.209,0,25.209,4.508,33.798,11.122
		c1.832,1.412,3.38,3.806,3.38,6.9c0,4.792-3.802,8.45-8.596,8.45c-2.384,0-4.081-0.842-5.203-1.688
		c-6.763-5.495-14.083-8.868-23.516-8.868c-18.732,0-32.527,15.487-32.527,34.778v0.28c0,19.291,13.655,34.916,32.527,34.916
		c10.419,0,17.458-3.375,24.638-9.428c1.271-1.128,3.104-1.974,5.213-1.974c4.367,0,8.166,3.662,8.166,8.026
		c0,2.677-1.266,4.783-2.816,6.194c-9.291,8.167-19.854,13.237-35.764,13.237C690.172,822.539,668.768,800.151,668.768,771.845z"/>
	<path fill="#7D8AC5" d="M775.096,754.245c0-4.781,3.656-8.589,8.446-8.589c4.786,0,8.585,3.808,8.585,8.589v7.606
		c3.945-9.295,11.267-16.335,18.732-16.335c5.348,0,8.445,3.521,8.445,8.452c0,4.501-2.955,7.461-6.755,8.163
		c-12.112,2.113-20.423,11.408-20.423,29.007v21.966c0,4.645-3.799,8.452-8.585,8.452c-4.649,0-8.446-3.662-8.446-8.452V754.245z"/>
	<path fill="#7D8AC5" d="M864.793,822.539c-21.539,0-38.154-15.629-38.154-38.58v-0.282c0-21.26,15.064-38.723,36.323-38.723
		c23.659,0,35.351,19.432,35.351,36.608c0,4.79-3.665,8.168-8.033,8.168h-46.602c1.827,12.109,10.419,18.873,21.405,18.873
		c7.177,0,12.81-2.539,17.598-6.479c1.265-0.991,2.392-1.552,4.364-1.552c3.804,0,6.764,2.96,6.764,6.898
		c0,2.114-0.988,3.948-2.261,5.211C884.793,818.74,876.344,822.539,864.793,822.539z M881.694,778.466
		c-1.13-10.979-7.606-19.574-18.862-19.574c-10.429,0-17.75,8.03-19.301,19.574H881.694z"/>
	<path fill="#7D8AC5" d="M929.296,814.513l-19.999-56.605c-0.422-1.123-0.84-2.956-0.84-4.364c0-4.079,3.236-7.887,8.305-7.887
		c4.229,0,7.044,2.816,8.312,6.757l14.359,45.062l14.506-45.062c1.266-3.94,4.364-6.757,8.729-6.757h0.99
		c4.357,0,7.46,2.816,8.729,6.757l14.643,45.062l14.508-45.195c1.119-3.664,3.797-6.624,8.303-6.624c4.65,0,8.023,3.662,8.023,7.887
		c0,1.268-0.424,2.956-0.702,3.808l-20.273,57.162c-1.834,5.21-5.354,7.604-9.438,7.604h-0.562c-4.224,0-7.746-2.395-9.29-7.324
		l-14.505-44.21l-14.641,44.21c-1.556,4.93-5.072,7.324-9.162,7.324h-0.559C934.506,822.117,930.986,819.723,929.296,814.513z"/>
</g>
</svg>
