<?xml version="1.0" encoding="utf-8"?>
<!-- Generator: Adobe Illustrator 16.0.0, SVG Export Plug-In . SVG Version: 6.00 Build 0)  -->
<!DOCTYPE svg PUBLIC "-//W3C//DTD SVG 1.1//EN" "http://www.w3.org/Graphics/SVG/1.1/DTD/svg11.dtd">
<svg version="1.1" id="Layer_1" xmlns="http://www.w3.org/2000/svg" xmlns:xlink="http://www.w3.org/1999/xlink" x="0px" y="0px"
	 width="152px" height="152px" viewBox="0 0 152 152" enable-background="new 0 0 152 152" xml:space="preserve">
<path fill="#DFD7EB" d="M1.173,76.783c0.607-20.318,7.11-37.734,22.114-51.312c8.398-7.599,18.267-12.682,29.416-15.131
	c18.249-4.007,35.854-2.43,52.507,6.335c5.543,2.919,11.025,6.114,13.448,12.576c2.566,6.846,0.975,14.605-4.188,19.297
	c-5.695,5.18-13.56,6.264-20.312,2.678c-4.019-2.128-7.75-4.915-11.943-6.569c-12.124-4.793-23.76-3.458-33.428,5.494
	c-6.155,5.702-9.648,13.35-10.35,21.967c-0.648,7.969,0.431,15.689,4.68,22.548c3.083,4.976,6.702,9.67,12.41,12.096
	c5.46,2.321,10.963,3.763,17.076,3.25c8.145-0.679,14.93-3.973,21.188-8.938c6.028-4.784,15.242-4.447,21.18,0.404
	c5.4,4.412,7.66,14.682,3.762,20.198c-2.289,3.24-4.902,6.495-8.036,8.855c-10.008,7.546-21.404,11.533-33.946,12.799
	c-12.42,1.256-24.347-0.286-35.632-5.323c-5.666-2.531-11.216-5.825-15.979-9.784C9.029,114.83,2.015,96.992,1.173,76.783"/>
<path fill="#ADDEE0" d="M133.143,92.731c-6.826-0.46-12.551-3.57-17.916-7.513c-2.117-1.551-4.198-3.152-6.22-4.825
	c-3.044-2.524-3.642-7-0.78-9.606c6.598-6.022,13.656-11.438,22.848-12.962c11.673-1.935,21.689,9.148,19.434,20.75
	C148.99,86.366,140.597,93.192,133.143,92.731"/>
</svg>
