<?xml version="1.0" encoding="utf-8"?>
<!-- Generator: Adobe Illustrator 16.0.0, SVG Export Plug-In . SVG Version: 6.00 Build 0)  -->
<!DOCTYPE svg PUBLIC "-//W3C//DTD SVG 1.1//EN" "http://www.w3.org/Graphics/SVG/1.1/DTD/svg11.dtd">
<svg version="1.1" id="Layer_1" xmlns="http://www.w3.org/2000/svg" xmlns:xlink="http://www.w3.org/1999/xlink" x="0px" y="0px"
	 width="96px" height="96px" viewBox="0 0 96 96" enable-background="new 0 0 96 96" xml:space="preserve">
<path fill="#DFD7EB" d="M1.62,48.727C2,35.98,6.082,25.053,15.494,16.533c5.271-4.767,11.46-7.957,18.458-9.493
	C45.4,4.526,56.447,5.516,66.896,11.015c3.478,1.831,6.916,3.836,8.437,7.889c1.611,4.297,0.611,9.165-2.627,12.111
	c-3.573,3.247-8.507,3.928-12.745,1.68c-2.521-1.336-4.863-3.085-7.492-4.122c-7.607-3.009-14.907-2.169-20.974,3.446
	C27.632,35.596,25.44,40.396,25,45.801c-0.406,5,0.271,9.843,2.937,14.146c1.936,3.122,4.205,6.068,7.787,7.59
	c3.425,1.456,6.876,2.36,10.714,2.041c5.11-0.428,9.367-2.495,13.294-5.609c3.78-3,9.562-2.79,13.287,0.255
	c3.39,2.768,4.807,9.211,2.361,12.672c-1.437,2.034-3.076,4.075-5.044,5.558c-6.278,4.733-13.429,7.235-21.299,8.028
	c-7.792,0.789-15.273-0.179-22.354-3.34c-3.554-1.588-7.036-3.655-10.024-6.138C6.549,72.6,2.148,61.406,1.62,48.727"/>
<path fill="#ADDEE0" d="M84.419,58.734c-4.281-0.288-7.874-2.24-11.239-4.713c-1.328-0.976-2.635-1.979-3.903-3.029
	c-1.908-1.583-2.285-4.392-0.49-6.027c4.141-3.777,8.57-7.176,14.336-8.133c7.324-1.212,13.608,5.741,12.193,13.02
	C94.363,54.739,89.097,59.023,84.419,58.734"/>
</svg>
