<?xml version="1.0" encoding="utf-8"?>
<!-- Generator: Adobe Illustrator 16.0.0, SVG Export Plug-In . SVG Version: 6.00 Build 0)  -->
<!DOCTYPE svg PUBLIC "-//W3C//DTD SVG 1.1//EN" "http://www.w3.org/Graphics/SVG/1.1/DTD/svg11.dtd">
<svg version="1.1" id="Layer_1" xmlns="http://www.w3.org/2000/svg" xmlns:xlink="http://www.w3.org/1999/xlink" x="0px" y="0px"
	 width="144px" height="144px" viewBox="0 0 144 144" enable-background="new 0 0 144 144" xml:space="preserve">
<g>
	<path fill="#FFFFFF" d="M2.182,72.305c0.57-19.112,6.688-35.494,20.8-48.265c7.9-7.148,17.182-11.93,27.67-14.233
		c17.165-3.769,33.726-2.285,49.39,5.959c5.215,2.745,10.37,5.751,12.649,11.828c2.414,6.441,0.915,13.739-3.94,18.152
		c-5.356,4.873-12.753,5.892-19.106,2.52c-3.778-2.001-7.289-4.623-11.232-6.18c-11.405-4.509-22.348-3.251-31.442,5.168
		c-5.791,5.363-9.076,12.558-9.735,20.662c-0.61,7.496,0.404,14.757,4.402,21.209c2.899,4.681,6.302,9.097,11.673,11.377
		c5.136,2.184,10.311,3.539,16.062,3.058c7.66-0.64,14.043-3.737,19.93-8.406c5.669-4.499,14.336-4.184,19.922,0.381
		c5.08,4.149,7.205,13.81,3.539,18.998c-2.154,3.048-4.612,6.109-7.56,8.33C95.787,129.96,85.068,133.71,73.27,134.9
		c-11.683,1.182-22.9-0.269-33.515-5.009c-5.33-2.381-10.551-5.478-15.03-9.2C9.569,108.092,2.974,91.312,2.182,72.305"/>
	<path fill="#FFFFFF" d="M126.312,87.306c-6.42-0.433-11.805-3.357-16.85-7.067c-1.991-1.459-3.949-2.965-5.851-4.538
		c-2.863-2.374-3.426-6.585-0.736-9.036c6.208-5.665,12.847-10.76,21.492-12.192c10.98-1.819,20.402,8.605,18.28,19.518
		C141.221,81.319,133.325,87.739,126.312,87.306"/>
</g>
</svg>
