<?xml version="1.0" encoding="utf-8"?>
<!-- Generator: Adobe Illustrator 16.0.0, SVG Export Plug-In . SVG Version: 6.00 Build 0)  -->
<!DOCTYPE svg PUBLIC "-//W3C//DTD SVG 1.1//EN" "http://www.w3.org/Graphics/SVG/1.1/DTD/svg11.dtd">
<svg version="1.1" id="Layer_1" xmlns="http://www.w3.org/2000/svg" xmlns:xlink="http://www.w3.org/1999/xlink" x="0px" y="0px"
	 width="48px" height="48px" viewBox="0 0 48 48" enable-background="new 0 0 48 48" xml:space="preserve">
<g>
	<path fill="#FFFFFF" d="M0.397,24.269c0.192-6.415,2.246-11.914,6.982-16.2c2.652-2.399,5.767-4.004,9.288-4.777
		c5.762-1.266,11.32-0.768,16.577,2c1.751,0.921,3.481,1.93,4.246,3.97c0.811,2.162,0.308,4.612-1.322,6.093
		c-1.798,1.636-4.28,1.978-6.413,0.846c-1.269-0.671-2.446-1.552-3.771-2.074c-3.828-1.513-7.501-1.091-10.554,1.734
		c-1.944,1.8-3.046,4.215-3.268,6.936c-0.205,2.516,0.136,4.954,1.478,7.12c0.973,1.57,2.115,3.053,3.918,3.818
		c1.724,0.732,3.46,1.188,5.391,1.026c2.572-0.215,4.714-1.254,6.69-2.822c1.903-1.51,4.812-1.404,6.687,0.128
		c1.705,1.393,2.419,4.636,1.188,6.377c-0.723,1.022-1.549,2.051-2.537,2.796c-3.161,2.383-6.758,3.641-10.718,4.041
		c-3.922,0.396-7.687-0.09-11.25-1.682c-1.79-0.799-3.542-1.838-5.045-3.087C2.877,36.281,0.664,30.649,0.397,24.269"/>
	<path fill="#FFFFFF" d="M42.063,29.305c-2.155-0.146-3.963-1.127-5.656-2.372c-0.668-0.49-1.325-0.995-1.964-1.523
		c-0.961-0.796-1.149-2.21-0.247-3.033c2.084-1.902,4.312-3.612,7.214-4.092c3.686-0.611,6.849,2.888,6.136,6.551
		C47.067,27.296,44.417,29.45,42.063,29.305"/>
</g>
</svg>
