<?xml version="1.0" encoding="utf-8"?>
<!-- Generator: Adobe Illustrator 16.0.0, SVG Export Plug-In . SVG Version: 6.00 Build 0)  -->
<!DOCTYPE svg PUBLIC "-//W3C//DTD SVG 1.1//EN" "http://www.w3.org/Graphics/SVG/1.1/DTD/svg11.dtd">
<svg version="1.1" id="Layer_1" xmlns="http://www.w3.org/2000/svg" xmlns:xlink="http://www.w3.org/1999/xlink" x="0px" y="0px"
	 width="180px" height="180px" viewBox="0 0 180 180" enable-background="new 0 0 180 180" xml:space="preserve">
<g>
	<path fill="#FFFFFF" d="M1.49,91.07c0.72-24.072,8.425-44.706,26.198-60.791c9.951-9.003,21.642-15.026,34.853-17.927
		c21.62-4.747,42.479-2.878,62.207,7.506c6.569,3.457,13.062,7.244,15.934,14.897c3.04,8.113,1.153,17.306-4.964,22.864
		c-6.746,6.139-16.062,7.421-24.065,3.174c-4.759-2.521-9.18-5.824-14.147-7.783c-14.365-5.68-28.147-4.095-39.603,6.509
		c-7.295,6.755-11.433,15.816-12.262,26.024c-0.769,9.442,0.509,18.588,5.544,26.714c3.653,5.896,7.938,11.457,14.703,14.33
		c6.468,2.75,12.986,4.457,20.23,3.852c9.648-0.806,17.688-4.707,25.102-10.589c7.142-5.667,18.057-5.27,25.093,0.479
		c6.398,5.227,9.075,17.394,4.457,23.929c-2.713,3.839-5.809,7.695-9.521,10.492c-11.858,8.94-25.358,13.663-40.22,15.163
		c-14.715,1.487-28.845-0.338-42.214-6.309c-6.713-2.999-13.288-6.899-18.931-11.588C10.797,136.146,2.488,115.013,1.49,91.07"/>
	<path fill="#FFFFFF" d="M157.839,109.965c-8.086-0.544-14.869-4.229-21.223-8.901c-2.508-1.837-4.974-3.734-7.369-5.716
		c-3.606-2.99-4.315-8.294-0.928-11.382c7.82-7.135,16.182-13.552,27.07-15.356c13.831-2.291,25.698,10.839,23.025,24.583
		C176.617,102.425,166.672,110.512,157.839,109.965"/>
</g>
</svg>
