<?xml version="1.0" encoding="utf-8"?>
<!-- Generator: Adobe Illustrator 16.0.0, SVG Export Plug-In . SVG Version: 6.00 Build 0)  -->
<!DOCTYPE svg PUBLIC "-//W3C//DTD SVG 1.1//EN" "http://www.w3.org/Graphics/SVG/1.1/DTD/svg11.dtd">
<svg version="1.1" id="Layer_1" xmlns="http://www.w3.org/2000/svg" xmlns:xlink="http://www.w3.org/1999/xlink" x="0px" y="0px"
	 width="512px" height="512px" viewBox="0 0 512 512" enable-background="new 0 0 512 512" xml:space="preserve">
<g>
	<g>
		<path fill="#FFFFFF" d="M124.365,210.311c1.059-35.478,12.415-65.893,38.611-89.6c14.671-13.271,31.9-22.146,51.37-26.425
			c31.869-6.995,62.61-4.241,91.69,11.062c9.678,5.097,19.251,10.68,23.481,21.961c4.483,11.955,1.703,25.506-7.311,33.7
			c-9.945,9.042-23.679,10.937-35.473,4.677c-7.014-3.719-13.533-8.584-20.854-11.474c-21.172-8.37-41.489-6.036-58.371,9.594
			c-10.75,9.957-16.85,23.314-18.074,38.357c-1.133,13.917,0.752,27.4,8.17,39.375c5.384,8.69,11.705,16.885,21.674,21.122
			c9.532,4.053,19.14,6.569,29.813,5.676c14.226-1.186,26.074-6.938,37.002-15.607c10.527-8.354,26.617-7.764,36.984,0.706
			c9.429,7.705,13.377,25.638,6.569,35.269c-3.998,5.663-8.559,11.343-14.032,15.466c-17.477,13.177-37.376,20.137-59.28,22.35
			c-21.688,2.191-42.514-0.497-62.219-9.299c-9.896-4.417-19.587-10.17-27.905-17.082
			C138.083,276.75,125.832,245.603,124.365,210.311"/>
		<path fill="#FFFFFF" d="M354.812,238.162c-11.918-0.803-21.919-6.234-31.284-13.12c-3.696-2.707-7.331-5.505-10.86-8.43
			c-5.315-4.406-6.359-12.219-1.364-16.77c11.521-10.52,23.85-19.978,39.897-22.635c20.386-3.379,37.876,15.975,33.934,36.231
			C382.484,227.045,367.826,238.965,354.812,238.162"/>
	</g>
	<g>
		<path fill="#FFFFFF" d="M2.596,385.922v-0.139c0-14.011,10.487-25.487,25.415-25.487c7.604,0,12.603,2.253,16.897,5.561
			c0.916,0.706,1.688,1.902,1.688,3.45c0,2.396-1.901,4.226-4.293,4.226c-1.198,0-2.042-0.421-2.607-0.845
			c-3.377-2.748-7.038-4.434-11.757-4.434c-9.364,0-16.263,7.744-16.263,17.389v0.141c0,9.645,6.832,17.458,16.263,17.458
			c5.211,0,8.73-1.688,12.322-4.714c0.635-0.564,1.55-0.987,2.604-0.987c2.182,0,4.085,1.831,4.085,4.013
			c0,1.339-0.637,2.392-1.408,3.098c-4.646,4.084-9.927,6.619-17.884,6.619C13.294,411.27,2.596,400.075,2.596,385.922z"/>
		<path fill="#FFFFFF" d="M56.252,362.9c0-2.323,1.827-4.224,4.222-4.224s4.296,1.9,4.296,4.224v43.651
			c0,2.396-1.901,4.226-4.296,4.226c-2.326,0-4.222-1.83-4.222-4.226V362.9z"/>
		<path fill="#FFFFFF" d="M92.933,411.27c-10.772,0-19.079-7.814-19.079-19.291v-0.141c0-10.629,7.533-19.361,18.165-19.361
			c11.829,0,17.668,9.716,17.668,18.304c0,2.396-1.827,4.085-4.01,4.085H82.37c0.916,6.054,5.212,9.436,10.703,9.436
			c3.593,0,6.407-1.27,8.802-3.238c0.634-0.496,1.198-0.776,2.183-0.776c1.898,0,3.377,1.48,3.377,3.449
			c0,1.058-0.491,1.975-1.125,2.606C102.928,409.37,98.705,411.27,92.933,411.27z M101.381,389.232
			c-0.561-5.489-3.8-9.787-9.435-9.787c-5.206,0-8.872,4.015-9.644,9.787H101.381z"/>
		<path fill="#FFFFFF" d="M115.961,399.722v-0.141c0-8.025,6.269-11.969,15.347-11.969c4.154,0,7.112,0.634,9.998,1.549v-0.915
			c0-5.28-3.237-8.097-9.223-8.097c-3.238,0-5.915,0.564-8.235,1.479c-0.493,0.141-0.92,0.211-1.34,0.211
			c-1.97,0-3.591-1.546-3.591-3.52c0-1.549,1.057-2.885,2.323-3.38c3.523-1.338,7.112-2.183,11.969-2.183
			c5.563,0,9.717,1.478,12.321,4.153c2.747,2.676,4.013,6.619,4.013,11.478v18.305c0,2.322-1.832,4.084-4.153,4.084
			c-2.464,0-4.155-1.69-4.155-3.593v-1.409c-2.532,3.029-6.405,5.424-12.107,5.424C122.156,411.199,115.961,407.185,115.961,399.722
			z M141.446,397.048v-2.536c-2.183-0.843-5.07-1.477-8.448-1.477c-5.49,0-8.729,2.322-8.729,6.196v0.14
			c0,3.591,3.166,5.635,7.25,5.635C137.153,405.006,141.446,401.767,141.446,397.048z"/>
		<path fill="#FFFFFF" d="M159.759,377.122c0-2.391,1.829-4.294,4.223-4.294s4.296,1.903,4.296,4.294v1.831
			c2.39-3.451,5.844-6.477,11.616-6.477c8.376,0,13.233,5.633,13.233,14.223v19.853c0,2.396-1.828,4.226-4.223,4.226
			c-2.392,0-4.295-1.83-4.295-4.226v-17.247c0-5.774-2.885-9.083-7.953-9.083c-4.93,0-8.379,3.449-8.379,9.223v17.107
			c0,2.396-1.902,4.226-4.296,4.226c-2.323,0-4.223-1.83-4.223-4.226V377.122z"/>
		<path fill="#FFFFFF" d="M203.271,363.254c0-2.536,2.114-4.156,4.86-4.156c2.744,0,4.86,1.62,4.86,4.156v0.423
			c0,2.533-2.116,4.222-4.86,4.222c-2.746,0-4.86-1.688-4.86-4.222V363.254z M203.908,377.122c0-2.391,1.832-4.294,4.223-4.294
			c2.394,0,4.298,1.903,4.298,4.294v29.43c0,2.396-1.904,4.226-4.298,4.226c-2.324,0-4.223-1.83-4.223-4.226V377.122z"/>
		<path fill="#FFFFFF" d="M223.55,377.122c0-2.391,1.837-4.294,4.226-4.294c2.397,0,4.298,1.903,4.298,4.294v1.831
			c2.392-3.451,5.839-6.477,11.615-6.477c8.379,0,13.238,5.633,13.238,14.223v19.853c0,2.396-1.832,4.226-4.226,4.226
			s-4.295-1.83-4.295-4.226v-17.247c0-5.774-2.888-9.083-7.957-9.083c-4.926,0-8.376,3.449-8.376,9.223v17.107
			c0,2.396-1.9,4.226-4.298,4.226c-2.321,0-4.226-1.83-4.226-4.226V377.122z"/>
		<path fill="#FFFFFF" d="M269.393,418.52c-1.479-0.56-2.395-1.759-2.395-3.377c0-1.903,1.621-3.521,3.59-3.521
			c0.634,0,1.129,0.141,1.551,0.351c3.377,1.9,7.11,2.959,11.402,2.959c7.606,0,11.762-3.944,11.762-11.408v-2.885
			c-3.102,4.012-6.971,6.828-13.1,6.828c-8.729,0-16.896-6.477-16.896-17.39v-0.141c0-10.983,8.239-17.46,16.896-17.46
			c6.269,0,10.139,2.887,13.027,6.336v-1.759c0-2.322,1.901-4.226,4.226-4.226c2.391,0,4.293,1.903,4.293,4.294v25.698
			c0,6.267-1.62,10.914-4.718,14.011c-3.378,3.379-8.587,5-15.279,5C278.542,421.831,273.897,420.705,269.393,418.52z
			 M295.371,390.007v-0.143c0-6.053-4.999-10.205-10.915-10.205c-5.914,0-10.559,4.084-10.559,10.205v0.143
			c0,6.056,4.718,10.209,10.559,10.209C290.372,400.216,295.371,396.062,295.371,390.007z"/>
		<path fill="#FFFFFF" d="M334.383,385.922v-0.139c0-14.011,10.494-25.487,25.416-25.487c7.605,0,12.604,2.253,16.898,5.561
			c0.916,0.706,1.69,1.902,1.69,3.45c0,2.396-1.9,4.226-4.298,4.226c-1.191,0-2.041-0.421-2.602-0.845
			c-3.382-2.748-7.042-4.434-11.757-4.434c-9.367,0-16.265,7.744-16.265,17.389v0.141c0,9.645,6.827,17.458,16.265,17.458
			c5.209,0,8.728-1.688,12.317-4.714c0.636-0.564,1.552-0.987,2.607-0.987c2.184,0,4.083,1.831,4.083,4.013
			c0,1.339-0.633,2.392-1.409,3.098c-4.646,4.084-9.926,6.619-17.881,6.619C345.085,411.27,334.383,400.075,334.383,385.922z"/>
		<path fill="#FFFFFF" d="M387.548,377.122c0-2.391,1.828-4.294,4.223-4.294c2.393,0,4.292,1.903,4.292,4.294v3.804
			c1.974-4.647,5.634-8.168,9.367-8.168c2.674,0,4.223,1.761,4.223,4.226c0,2.251-1.478,3.73-3.378,4.082
			c-6.056,1.058-10.212,5.704-10.212,14.504v10.982c0,2.322-1.899,4.226-4.292,4.226c-2.324,0-4.223-1.83-4.223-4.226V377.122z"/>
		<path fill="#FFFFFF" d="M432.396,411.27c-10.77,0-19.077-7.814-19.077-19.291v-0.141c0-10.629,7.531-19.361,18.161-19.361
			c11.83,0,17.676,9.716,17.676,18.304c0,2.396-1.833,4.085-4.018,4.085h-23.3c0.913,6.054,5.209,9.436,10.702,9.436
			c3.588,0,6.404-1.27,8.799-3.238c0.633-0.496,1.195-0.776,2.182-0.776c1.902,0,3.382,1.48,3.382,3.449
			c0,1.058-0.493,1.975-1.13,2.606C442.396,409.37,438.172,411.27,432.396,411.27z M440.847,389.232
			c-0.564-5.489-3.804-9.787-9.431-9.787c-5.215,0-8.875,4.015-9.651,9.787H440.847z"/>
		<path fill="#FFFFFF" d="M464.648,407.256l-10.001-28.303c-0.21-0.562-0.419-1.478-0.419-2.182c0-2.04,1.618-3.943,4.152-3.943
			c2.114,0,3.521,1.407,4.155,3.378l7.181,22.531l7.252-22.531c0.633-1.971,2.183-3.378,4.365-3.378h0.494
			c2.179,0,3.73,1.407,4.364,3.378l7.321,22.531l7.254-22.598c0.561-1.832,1.898-3.312,4.151-3.312c2.325,0,4.013,1.831,4.013,3.943
			c0,0.634-0.212,1.478-0.352,1.903l-10.137,28.581c-0.917,2.604-2.677,3.802-4.719,3.802h-0.281c-2.111,0-3.874-1.197-4.646-3.662
			l-7.253-22.104l-7.32,22.104c-0.777,2.465-2.535,3.662-4.58,3.662h-0.28C467.253,411.058,465.493,409.86,464.648,407.256z"/>
	</g>
</g>
</svg>
